<svg width="600" height="256" xmlns="http://www.w3.org/2000/svg" preserveAspectRatio="xMidYMid meet" version="1.0">

 <g>
  <title>Layer 1</title>
  <path fill="#d8151c" id="svg_2" d="m123.6,9.1c-63.7,0.4 -116.4,0.9 -117.1,1.1c-0.8,0.2 3.4,6.8 10.7,16.8c6.5,9.1 14.7,20.4 18,25.2c6,8.7 6.1,8.7 11.2,9.3c2.8,0.4 48.9,0.4 102.4,0.1l97.4,-0.5l6.1,5.6c3.4,3.1 9.3,8.5 13,12l6.8,6.3l-11.1,12.4l-11.1,12.3l-4.7,-0.3c-4.3,-0.3 -49.8,-1.4 -135.7,-3.3c-18.7,-0.4 -34.3,-0.5 -34.7,-0.1c-0.5,0.3 5.1,8.9 12.3,19c7.2,10.2 15.8,22.4 19.1,27.1l6,8.7l29.7,0.6c16.3,0.4 33.6,0.9 38.5,1.2l8.9,0.6l17.6,16.7c9.7,9.1 27.5,26.2 39.7,37.9l22.2,21.2l46.4,0l46.3,-0.1l-2.6,-2.2c-1.4,-1.2 -13.8,-12.3 -27.4,-24.7c-13.6,-12.4 -29.6,-26.7 -35.4,-31.9c-18.1,-15.9 -21.4,-19.4 -19.7,-20.7c2.7,-1.9 83.5,-73.5 84.1,-74.4c0.3,-0.5 -8.8,-9.3 -20.2,-19.7c-11.4,-10.3 -30.2,-27.4 -41.8,-38l-21,-19.2l-19,0.1c-10.4,0.1 -71.1,0.5 -134.9,0.9z"/>
  <path fill="#391086" id="svg_3" d="m381.10001,8.7l-59.3,0.3l22.9,23.8c12.7,13 25.2,26.1 27.9,29l4.9,5.4l89.7,-0.7l89.6,-0.8l1.2,-2.6c1.1,-2.6 6.9,-12 24.6,-40.4l9.3,-14.7l-75.7,0.2c-41.6,0.2 -102.4,0.4 -135.1,0.5z"/>
  <path fill="#391086" id="svg_4" d="m427.00001,89l-25.6,0.5l-16.4,14.5c-9.1,8 -25.1,22.1 -35.5,31.5c-10.5,9.4 -21.2,18.8 -23.7,21c-2.6,2.1 -4.5,4.2 -4.2,4.6c0.2,0.5 11,10.1 24,21.4l23.5,20.7l11.5,-10.8c6.4,-5.9 15.5,-14.4 20.4,-18.8c4.8,-4.5 24.9,-23.2 44.6,-41.6c19.7,-18.4 38.1,-35.6 40.9,-38.2l5,-4.7l-12.5,-0.1c-6.9,-0.1 -15.6,-0.2 -19.5,-0.3c-3.8,-0.2 -18.5,0 -32.5,0.3z"/>
 </g>
</svg>